<svg width="400" height="399" viewBox="0 0 400 399" fill="none" xmlns="http://www.w3.org/2000/svg">
<g clip-path="url(#clip0_307_34)">
<path d="M12.1625 377.913C25.6838 380.085 36.7551 376.583 49.3247 376.583C60.0535 376.583 71.5449 377.36 81.0816 377.913C87.366 378.276 93.7157 377.549 100.001 377.913C103.384 378.108 106.629 388.309 110.061 390.4C114.232 392.942 122.974 393.386 122.974 386.558C122.974 378.552 137.839 379.994 142.643 381.238C150.383 383.242 159.218 381 166.517 378.947C169.412 378.133 183.169 371.546 186.186 374.218C191.583 378.998 202.978 376.044 210.136 376.657C219.671 377.473 218.925 388.489 228.979 389.809C234.949 390.592 239.212 390.025 243.544 386.188C246.783 383.319 276.548 373.267 276.952 374.662C278.893 381.348 286.922 375.798 291.291 373.184C297.511 369.463 291.892 380.636 291.892 383.233C291.892 385.737 299.459 384.392 301.202 384.637C306.412 385.369 308.013 385.005 312.838 381.312C314.517 380.026 326.57 376.583 329.055 376.583C335.799 376.583 339.19 375.712 339.19 368.603C339.19 365.175 337.264 364.963 336.562 362.544C336.017 360.667 333.844 359.023 333.784 357.963C333.574 354.244 333.784 350.457 333.784 346.732C333.784 343.307 330.009 341.248 329.055 337.865C326.409 328.492 331.256 321.076 334.46 312.669C336.102 308.358 340.242 299.652 338.889 295.157C336.951 288.719 338.698 278.922 334.084 273.877C332.049 271.651 332.433 268.273 332.433 265.528C332.433 262.109 328.529 261.061 328.529 256.957C328.529 245.209 329.229 231.324 331.382 219.938C332.712 212.902 332.869 204.84 334.835 198.067C335.952 194.218 336.381 183.811 334.46 180.408C333.047 177.905 333.941 174.533 333.784 171.763C333.555 167.711 329.73 164.873 329.73 159.867C329.73 157.724 329.73 155.581 329.73 153.438C329.73 150.913 329.588 153.969 330.03 153.882C333.928 153.114 339.042 139.819 340.241 136.148C341.079 133.58 340.213 130.957 341.217 128.39C343.157 123.423 344.923 116.307 345.871 111.174C347.001 105.061 338.06 107.592 335.136 106.297C331.482 104.679 333.443 100.937 331.082 98.6126C328.422 95.9946 324.909 96.4771 324.399 91.9626C324.104 89.3398 325.263 85.0913 324.024 82.6526C321.93 78.5307 319.031 69.0392 322.973 64.7715C325.129 62.4382 333.299 54.5103 327.703 52.0627C321.251 49.2406 306.907 49.2254 300.601 52.0627C296.4 53.9528 290.466 55.1939 285.886 56.0526C280.893 56.9889 276.27 60.0335 271.322 61.0773C260.431 63.374 246.065 64.4827 235.136 62.0376C226.645 60.1383 217.878 54.3874 209.46 53.4665C197.732 52.1841 189.319 52.335 177.628 54.4273C160.876 57.4246 143.397 61.3726 126.352 61.3726C110.026 61.3726 96.2492 76.4473 80.4805 68.0226C70.6832 62.7882 58.9249 56.0526 47.9733 56.0526C37.6129 56.0526 27.2525 56.0526 16.8922 56.0526C12.2364 56.0526 6.06687 55.4211 6.83217 61.4465C7.73044 68.5195 11.0804 75.6094 14.2646 82.0615C18.2664 90.1703 16.7481 98.6786 19.2195 106.888C23.0948 119.761 16.2165 131.882 16.2165 144.424C16.2165 152.794 18.4709 164.329 16.1415 172.354C15.5542 174.377 12.2813 176.309 12.1625 178.413C11.9678 181.862 11.5151 184.215 10.5108 187.427C8.76444 193.013 12.1625 196.526 12.1625 202.353C12.1625 207.105 13.1081 211.525 13.4388 216.244C13.8295 221.82 12.1625 226.752 12.1625 232.204C12.1625 247.103 8.32379 263.711 11.1114 278.458C11.9108 282.687 11.7606 286.915 13.5138 290.798C14.8231 293.697 17.8296 294.073 18.6189 297.374C19.8461 302.507 20.2706 308.17 20.2706 313.408C20.2706 321.32 20.3111 330.221 16.2165 337.274C14.9442 339.465 14.8652 340.593 14.8652 343.333C14.8652 346.083 12.4909 347.235 12.1625 349.983C11.8903 352.26 9.45979 352.828 9.45979 355.968C9.45979 358.347 8.87077 361.586 9.53487 363.874C10.7932 368.208 13.5138 370.242 13.5138 375.253" stroke="#19C463" stroke-width="20" stroke-linecap="round" stroke-linejoin="round"/>
<path d="M339.189 373.923C344.756 366.39 348.871 358.336 355.706 351.608C361.428 345.977 366.666 337.601 374.925 335.279C380.712 333.652 385.315 321.817 387.838 317.472C393.701 307.373 388.268 296.533 387.838 285.108C387.518 276.619 386.486 269.122 386.486 260.873C386.486 249.294 381.081 238.947 381.081 226.884C381.081 203.907 382.432 181.474 382.432 158.463C382.432 136.764 382.432 115.065 382.432 93.3666C382.432 82.1371 377.027 71.1136 377.027 60.7076C377.027 51.8028 375.676 43.4631 375.676 34.7729C375.676 26.5133 374.324 18.0834 374.324 9.50285C374.324 -2.30641 363.264 14.3047 362.162 17.5567C361.033 20.8905 356.478 30.3183 352.703 30.7829C349.175 31.2168 347.54 37.6496 343.844 38.689C340.339 39.6744 337.902 42.3025 333.784 42.7529C328.289 43.3537 327.027 45.8095 327.027 50.7329" stroke="#19C463" stroke-width="20" stroke-linecap="round" stroke-linejoin="round"/>
<path d="M5.4054 58.7126C8.55556 53.6283 10.9418 50.6038 14.8649 46.7427C16.7391 44.898 20.1945 43.8434 21.6216 42.0877C24.7194 38.2766 32.4042 36.8694 36.1862 33.1472C40.3446 29.0544 47.7707 33.5253 52.7027 27.4577C56.0719 23.3128 58.5578 18.5918 62.1622 14.1577C65.6746 9.83669 71.6838 9.5027 77.027 9.5027C84.7535 9.5027 91.8935 5.5127 99.9249 5.5127C117.968 5.5127 136.011 5.5127 154.054 5.5127C173.212 5.5127 191.117 12.1627 210.51 12.1627C220.207 12.1627 229.639 10.8327 239.189 10.8327C249.659 10.8327 259.251 8.1727 269.519 8.1727C275.376 8.1727 280.692 10.1252 286.486 10.7589C291.391 11.2952 295.422 9.75305 300 9.5027C308.43 9.04177 316.884 8.1727 325.601 8.1727C334.184 8.1727 342.768 8.1727 351.351 8.1727C358.49 8.1727 364.483 5.5127 371.622 5.5127" stroke="#19C463" stroke-width="20" stroke-linecap="round" stroke-linejoin="round"/>
<path d="M87.8379 119.893C83.44 125.433 80.6579 124.777 81.0811 131.863C81.2244 134.26 89.2584 133.193 91.2163 133.193C95.2773 133.193 98.2719 126.755 94.5946 126.543C92.7044 126.434 84.2887 127.796 85.2103 124.622C86.2444 121.059 91.8919 124.644 91.8919 127.873C91.8919 131.6 90.3606 134.377 85.886 133.119C83.506 132.449 82.5303 125.708 84.0844 124.178C86.8152 121.491 91.8919 124.103 91.8919 127.208C91.8919 131.222 87.3465 130.533 84.4595 130.533C81.5546 130.533 79.7298 123.939 79.7298 129.203C79.7298 132.785 80.0903 135.853 84.4595 135.853C87.1265 135.853 92.7676 136.937 93.2433 133.193C93.6427 130.046 94.5946 126.947 94.5946 123.218C94.5946 119.962 87.6838 121.075 85.1352 121.223C82.2984 121.387 80.2941 126.37 79.8049 128.538C78.7579 133.175 86.5487 131.863 89.1892 131.863" stroke="#19C463" stroke-width="20" stroke-linecap="round" stroke-linejoin="round"/>
<path d="M259.459 125.213C270.338 125.843 261.411 121.629 262.237 124.474C262.965 126.982 266.216 127.174 266.216 130.533C266.216 134.257 262.534 133.371 259.459 133.193C256.717 133.034 250.292 122.553 256.081 122.553C260.339 122.553 268.918 122.568 268.918 127.208C268.918 134.56 263.253 134.899 256.756 134.523C254.426 134.388 255.405 128.905 255.405 127.208C255.405 122.836 250.507 126.943 253.378 129.203C255.552 130.915 253.808 130.657 254.054 126.543C254.192 124.216 260.378 125.213 262.162 125.213M259.459 125.213C257.897 133.996 262.162 131.481 262.162 125.878C262.162 121.773 256.685 125.052 259.459 125.213Z" stroke="#19C463" stroke-width="20" stroke-linecap="round" stroke-linejoin="round"/>
<path d="M263.513 127.873C260.591 121.105 253.375 117.137 262.913 119.819C267.523 121.115 257.944 117.554 256.757 119.893" stroke="#19C463" stroke-width="20" stroke-linecap="round" stroke-linejoin="round"/>
<path d="M172.974 191.713C170.977 196.337 166.098 201.099 164.79 205.604C164.298 207.298 160.23 213.184 158.784 214.323C154.461 217.727 157.903 212.456 159.76 210.628C162.065 208.359 163.27 204.662 165.916 202.057C168.429 199.584 169.429 196.406 171.622 193.708C174.289 190.427 176.394 198.662 177.703 199.693C178.29 200.154 179.632 202.91 179.73 203.683C179.984 205.686 183.415 206.71 184.835 207.968C187.521 210.348 189.061 214.07 190.541 216.983" stroke="#19C463" stroke-width="20" stroke-linecap="round" stroke-linejoin="round"/>
<path d="M163.513 210.333C168.419 210.333 176.839 210.456 181.081 207.673" stroke="#19C463" stroke-width="20" stroke-linecap="round" stroke-linejoin="round"/>
<path d="M90.5405 274.173C117.586 289.754 147.665 298.113 180.33 298.113C195.745 298.113 211.448 297.456 226.351 294.197C241.196 290.95 252.182 281.744 264.865 275.503" stroke="#19C463" stroke-width="20" stroke-linecap="round" stroke-linejoin="round"/>
<path d="M172.973 203.683C172.973 212.719 171.622 207.924 171.622 203.018C171.622 199.569 173.92 204.194 175.375 205.308C175.444 205.361 173.561 200.525 170.946 201.097C169.797 201.348 166.216 206.476 166.216 205.013" stroke="#19C463" stroke-width="20" stroke-linecap="round" stroke-linejoin="round"/>
<path d="M172.973 198.363C171.1 200.897 168.926 203.668 167.568 206.343" stroke="#19C463" stroke-width="20" stroke-linecap="round" stroke-linejoin="round"/>
</g>
<defs>
<clipPath id="clip0_307_34">
<rect width="400" height="399" fill="white"/>
</clipPath>
</defs>
</svg>
